<svg width="310" height="340" viewBox="0 0 310 340" fill="none" xmlns="http://www.w3.org/2000/svg">
<g filter="url(#filter0_d)">
<path d="M150.822 0L226.233 40.8009L300.955 82.741L301.644 165.482L300.955 248.223L226.233 290.163L150.822 330.964L75.4109 290.163L0.689022 248.223L0 165.482L0.689022 82.741L75.4108 40.8009L150.822 0Z" transform="translate(305.839 331.752) rotate(-180)" fill="white"/>
<path d="M75.6613 41.2471L150.822 0.581776L225.982 41.2471L225.989 41.2509L300.445 83.042L301.132 165.478V165.486L300.445 247.922L225.989 289.713L225.982 289.717L150.822 330.382L75.6613 289.717L75.6544 289.713L1.19822 247.922L0.511665 165.486V165.478L1.19822 83.042L75.6543 41.2509L75.6613 41.2471Z" transform="translate(305.839 331.752) rotate(-180)" stroke="#E8E8E8" stroke-width="1.02336"/>
</g>
<path d="M106.551 0L159.826 30.0638L212.615 60.9671L213.102 121.934L212.615 182.901L159.826 213.804L106.551 243.868L53.2755 213.804L0.486773 182.901L0 121.934L0.486773 60.9671L53.2754 30.0638L106.551 0Z" transform="translate(63.8567 42.7236)" fill="#243850" fill-opacity="0.05"/>
<path d="M106.551 0L159.826 30.0638L212.615 60.9671L213.102 121.934L212.615 182.901L159.826 213.804L106.551 243.868L53.2755 213.804L0.486773 182.901L0 121.934L0.486773 60.9671L53.2754 30.0638L106.551 0Z" transform="translate(63.8567 74.9805)" fill="#243850" fill-opacity="0.05"/>
<path d="M106.551 0L159.826 30.0638L212.615 60.9671L213.102 121.934L212.615 182.901L159.826 213.804L106.551 243.868L53.2755 213.804L0.486773 182.901L0 121.934L0.486773 60.9671L53.2754 30.0638L106.551 0Z" transform="translate(84.394 31.1104)" fill="#243850" fill-opacity="0.05"/>
<path d="M106.551 0L159.826 30.0638L212.615 60.9671L213.102 121.934L212.615 182.901L159.826 213.804L106.551 243.868L53.2755 213.804L0.486773 182.901L0 121.934L0.486773 60.9671L53.2754 30.0638L106.551 0Z" transform="translate(50.1047 76.3906)" fill="#0035BC" fill-opacity="0.28"/>
<path d="M106.551 0L159.826 30.0638L212.615 60.9671L213.102 121.934L212.615 182.901L159.826 213.804L106.551 243.868L53.2755 213.804L0.486773 182.901L0 121.934L0.486773 60.9671L53.2754 30.0638L106.551 0Z" transform="translate(50.1047 15.6973)" fill="#0056BC" fill-opacity="0.28"/>
<path d="M53.7855 30.951L106.551 1.17506L159.309 30.947L159.323 30.9551L211.596 61.5565L212.079 121.926V121.942L211.596 182.312L159.323 212.913L159.309 212.921L106.551 242.693L53.7925 212.921L53.7784 212.913L1.50546 182.312L1.02333 121.942L1.0234 121.934L1.50546 61.5565L53.7855 30.951Z" transform="translate(84.394 44.6582)" fill="#92B8E6" fill-opacity="0.18" stroke="white" stroke-width="2.04673"/>
<path d="M54.7277 30.4022L108.463 1.16504L162.192 30.3983L162.206 30.406L215.413 60.4383L215.903 119.668V119.685L215.413 178.914L162.206 208.946L162.192 208.954L108.463 238.187L54.7347 208.954L54.7208 208.946L1.51394 178.914L1.02333 119.685L1.0234 119.676L1.51394 60.4383L54.7277 30.4022Z" transform="translate(14.4651 46.5928)" fill="#5ECFFF" fill-opacity="0.23" stroke="white" stroke-width="2.04673"/>
<path d="M49.912 27.6198L98.8364 1.16341L147.754 27.6159L147.768 27.6236L196.203 54.7951L196.649 108.377V108.394L196.203 161.977L147.768 189.148L147.754 189.156L98.8364 215.608L49.9189 189.156L49.905 189.148L1.46991 161.977L1.02333 108.394L1.0234 108.386L1.46991 54.7951L49.912 27.6198Z" transform="translate(252.25 274.978) rotate(-180)" fill="#2F4259"/>
<path d="M49.912 27.6198L98.8364 1.16341L147.754 27.6159L147.768 27.6236L196.203 54.7951L196.649 108.377V108.394L196.203 161.977L147.768 189.148L147.754 189.156L98.8364 215.608L49.9189 189.156L49.905 189.148L1.46991 161.977L1.02333 108.394L1.0234 108.386L1.46991 54.7951L49.912 27.6198Z" transform="translate(252.25 274.978) rotate(-180)" fill="url(#paint0_linear)" fill-opacity="0.45"/>
<path d="M49.912 27.6198L98.8364 1.16341L147.754 27.6159L147.768 27.6236L196.203 54.7951L196.649 108.377V108.394L196.203 161.977L147.768 189.148L147.754 189.156L98.8364 215.608L49.9189 189.156L49.905 189.148L1.46991 161.977L1.02333 108.394L1.0234 108.386L1.46991 54.7951L49.912 27.6198Z" transform="translate(252.25 274.978) rotate(-180)" stroke="#2F4259" stroke-width="2.04673"/>
<defs>
<filter id="filter0_d" x="0.102342" y="0.788086" width="309.83" height="339.151" filterUnits="userSpaceOnUse" color-interpolation-filters="sRGB">
<feFlood flood-opacity="0" result="BackgroundImageFix"/>
<feColorMatrix in="SourceAlpha" type="matrix" values="0 0 0 0 0 0 0 0 0 0 0 0 0 0 0 0 0 0 255 0"/>
<feOffset dy="4.09346"/>
<feGaussianBlur stdDeviation="2.04673"/>
<feColorMatrix type="matrix" values="0 0 0 0 0 0 0 0 0 0 0 0 0 0 0 0 0 0 0.25 0"/>
<feBlend mode="normal" in2="BackgroundImageFix" result="effect1_dropShadow"/>
<feBlend mode="normal" in="SourceGraphic" in2="effect1_dropShadow" result="shape"/>
</filter>
<linearGradient id="paint0_linear" x2="1" gradientUnits="userSpaceOnUse" gradientTransform="translate(197.673) scale(197.673 216.772) rotate(90)">
<stop stop-color="#243850" stop-opacity="0.12"/>
<stop offset="1" stop-color="white" stop-opacity="0.61"/>
</linearGradient>
</defs>
</svg>
